<?xml version="1.0" encoding="utf-8"?>
<!-- Generator: Adobe Illustrator 16.0.0, SVG Export Plug-In . SVG Version: 6.00 Build 0)  -->
<!DOCTYPE svg PUBLIC "-//W3C//DTD SVG 1.1//EN" "http://www.w3.org/Graphics/SVG/1.1/DTD/svg11.dtd">
<svg version="1.1" id="Capa_1" xmlns="http://www.w3.org/2000/svg" xmlns:xlink="http://www.w3.org/1999/xlink" x="0px" y="0px"
	 width="256px" height="255px" viewBox="0 0 256 255" enable-background="new 0 0 256 255" xml:space="preserve">
<g>
	<g id="XMLID_1_">
		<g>
			<path d="M219.32,64.33c0,0,36.21-2.32,36.21,63.1c0,65.41-41.49,60.709-41.49,60.709H127.6v8.74h61.87l0.07,29.13
				c0,0,4.05,28.12-60.78,28.12c-67.76,0-62.52-33.899-62.52-33.899V164.21c0-33.87,34.47-33.31,34.47-33.31h61.37
				c36.79,0,35.63-36.21,35.63-36.21V64.33H219.32z M174,223.41c0-6.16-4.97-11.13-11.13-11.13c-6.15,0-11.13,4.97-11.13,11.13
				c0,6.149,4.979,11.13,11.13,11.13C169.03,234.54,174,229.56,174,223.41z"/>
			<path d="M126.92,0.07c67.75,0,62.51,33.9,62.51,33.9v56.01c0,33.88-34.47,33.32-34.47,33.32H93.6
				c-36.8,0-35.64,36.21-35.64,36.21v30.36H36.35c0,0-36.21,2.32-36.21-63.1c0-65.42,41.49-60.71,41.49-60.71h86.44v-8.75H66.2
				l-0.07-29.12C66.13,28.19,62.08,0.07,126.92,0.07z M103.93,30.79c0-6.16-4.97-11.13-11.13-11.13c-6.15,0-11.13,4.97-11.13,11.13
				c0,6.15,4.98,11.13,11.13,11.13C98.96,41.92,103.93,36.94,103.93,30.79z"/>
		</g>
		<g>
		</g>
	</g>
</g>
</svg>
